<svg width="24" height="25" viewBox="0 0 24 25" fill="none" xmlns="http://www.w3.org/2000/svg">
<path d="M13.8052 24.1667H9.81771C9.59618 24.1667 9.39983 24.0962 9.22865 23.9552C9.05746 23.8142 8.95174 23.633 8.91146 23.4115L8.42812 20.3604C8.04549 20.2194 7.64271 20.0281 7.21979 19.7865C6.79688 19.5448 6.42431 19.2931 6.10208 19.0312L3.29271 20.3302C3.07118 20.4309 2.84965 20.446 2.62812 20.3755C2.4066 20.305 2.23542 20.159 2.11458 19.9375L0.120833 16.4031C0 16.2017 -0.0302083 15.9903 0.0302083 15.7687C0.090625 15.5472 0.211458 15.366 0.392708 15.225L2.99062 13.3219C2.95035 13.1406 2.92517 12.9342 2.9151 12.7026C2.90503 12.471 2.9 12.2646 2.9 12.0833C2.9 11.9021 2.90503 11.6957 2.9151 11.4641C2.92517 11.2325 2.95035 11.026 2.99062 10.8448L0.392708 8.94167C0.211458 8.80069 0.090625 8.61944 0.0302083 8.39792C-0.0302083 8.17639 0 7.96493 0.120833 7.76354L2.11458 4.22917C2.23542 4.00764 2.4066 3.86163 2.62812 3.79115C2.84965 3.72066 3.07118 3.73576 3.29271 3.83646L6.10208 5.13542C6.42431 4.87361 6.79688 4.62187 7.21979 4.38021C7.64271 4.13854 8.04549 3.95729 8.42812 3.83646L8.91146 0.755208C8.95174 0.533681 9.05746 0.352431 9.22865 0.211458C9.39983 0.0704861 9.59618 0 9.81771 0H13.8052C14.0267 0 14.2231 0.0704861 14.3943 0.211458C14.5655 0.352431 14.6712 0.533681 14.7115 0.755208L15.1948 3.80625C15.5774 3.94722 15.9852 4.13351 16.4182 4.3651C16.8512 4.5967 17.2188 4.85347 17.5208 5.13542L20.3302 3.83646C20.5517 3.73576 20.7733 3.72066 20.9948 3.79115C21.2163 3.86163 21.3875 4.00764 21.5083 4.22917L23.5021 7.73333C23.6229 7.93472 23.6582 8.15121 23.6078 8.38281C23.5575 8.61441 23.4316 8.80069 23.2302 8.94167L20.6323 10.7844C20.6726 10.9858 20.6977 11.2023 20.7078 11.4339C20.7179 11.6655 20.7229 11.8819 20.7229 12.0833C20.7229 12.2847 20.7179 12.4962 20.7078 12.7177C20.6977 12.9392 20.6726 13.1507 20.6323 13.3521L23.2302 15.225C23.4115 15.366 23.5323 15.5472 23.5927 15.7687C23.6531 15.9903 23.6229 16.2017 23.5021 16.4031L21.5083 19.9375C21.3875 20.159 21.2163 20.305 20.9948 20.3755C20.7733 20.446 20.5517 20.4309 20.3302 20.3302L17.5208 19.0312C17.1986 19.2931 16.8311 19.5498 16.4182 19.8016C16.0054 20.0533 15.5976 20.2396 15.1948 20.3604L14.7115 23.4115C14.6712 23.633 14.5655 23.8142 14.3943 23.9552C14.2231 24.0962 14.0267 24.1667 13.8052 24.1667ZM11.8115 16.0104C12.899 16.0104 13.8253 15.6278 14.5906 14.8625C15.3559 14.0972 15.7385 13.1708 15.7385 12.0833C15.7385 10.9958 15.3559 10.0694 14.5906 9.30417C13.8253 8.53889 12.899 8.15625 11.8115 8.15625C10.724 8.15625 9.79757 8.53889 9.03229 9.30417C8.26701 10.0694 7.88437 10.9958 7.88437 12.0833C7.88437 13.1708 8.26701 14.0972 9.03229 14.8625C9.79757 15.6278 10.724 16.0104 11.8115 16.0104ZM11.8115 14.1979C11.2274 14.1979 10.729 13.9915 10.3161 13.5786C9.9033 13.1658 9.69687 12.6674 9.69687 12.0833C9.69687 11.4993 9.9033 11.0009 10.3161 10.588C10.729 10.1752 11.2274 9.96875 11.8115 9.96875C12.3955 9.96875 12.8939 10.1752 13.3068 10.588C13.7196 11.0009 13.926 11.4993 13.926 12.0833C13.926 12.6674 13.7196 13.1658 13.3068 13.5786C12.8939 13.9915 12.3955 14.1979 11.8115 14.1979ZM10.4823 22.3542H13.1406L13.5635 18.9708C14.2281 18.8097 14.8575 18.558 15.4516 18.2156C16.0457 17.8733 16.5844 17.4604 17.0677 16.9771L20.2698 18.3667L21.4781 16.1917L18.6385 14.1073C18.7191 13.7649 18.7845 13.4276 18.8349 13.0953C18.8852 12.763 18.9104 12.4257 18.9104 12.0833C18.9104 11.741 18.8903 11.4036 18.85 11.0714C18.8097 10.7391 18.7392 10.4017 18.6385 10.0594L21.4781 7.975L20.2698 5.8L17.0677 7.18958C16.6045 6.66597 16.0809 6.22795 15.4969 5.87552C14.9128 5.52309 14.2684 5.29653 13.5635 5.19583L13.1406 1.8125H10.4823L10.0594 5.19583C9.37465 5.33681 8.73524 5.57847 8.14115 5.92083C7.54705 6.26319 7.0184 6.68611 6.55521 7.18958L3.35312 5.8L2.14479 7.975L4.98438 10.0594C4.90382 10.4017 4.83837 10.7391 4.78802 11.0714C4.73767 11.4036 4.7125 11.741 4.7125 12.0833C4.7125 12.4257 4.73767 12.763 4.78802 13.0953C4.83837 13.4276 4.90382 13.7649 4.98438 14.1073L2.14479 16.1917L3.35312 18.3667L6.55521 16.9771C7.03854 17.4604 7.57726 17.8733 8.17135 18.2156C8.76545 18.558 9.39479 18.8097 10.0594 18.9708L10.4823 22.3542Z" fill="#3B1E0E"/>
</svg>
