<svg width="25" height="25" viewBox="0 0 25 25" fill="none" xmlns="http://www.w3.org/2000/svg">
<path d="M7.25 24.1667C6.58542 24.1667 6.01649 23.93 5.54323 23.4568C5.06996 22.9835 4.83333 22.4146 4.83333 21.75C4.83333 21.0854 5.06996 20.5165 5.54323 20.0432C6.01649 19.57 6.58542 19.3333 7.25 19.3333C7.91458 19.3333 8.48351 19.57 8.95677 20.0432C9.43003 20.5165 9.66667 21.0854 9.66667 21.75C9.66667 22.4146 9.43003 22.9835 8.95677 23.4568C8.48351 23.93 7.91458 24.1667 7.25 24.1667ZM19.3333 24.1667C18.6687 24.1667 18.0998 23.93 17.6266 23.4568C17.1533 22.9835 16.9167 22.4146 16.9167 21.75C16.9167 21.0854 17.1533 20.5165 17.6266 20.0432C18.0998 19.57 18.6687 19.3333 19.3333 19.3333C19.9979 19.3333 20.5668 19.57 21.0401 20.0432C21.5134 20.5165 21.75 21.0854 21.75 21.75C21.75 22.4146 21.5134 22.9835 21.0401 23.4568C20.5668 23.93 19.9979 24.1667 19.3333 24.1667ZM6.22292 4.83333L9.12292 10.875H17.5812L20.9042 4.83333H6.22292ZM5.075 2.41667H22.8979C23.3611 2.41667 23.7135 2.62309 23.9552 3.03594C24.1969 3.44878 24.2069 3.86667 23.9854 4.28958L19.6958 12.0229C19.4743 12.4257 19.1773 12.7378 18.8047 12.9594C18.4321 13.1809 18.0243 13.2917 17.5812 13.2917H8.57917L7.25 15.7083H21.75V18.125H7.25C6.34375 18.125 5.65903 17.7273 5.19583 16.9318C4.73264 16.1363 4.7125 15.3458 5.13542 14.5604L6.76667 11.6L2.41667 2.41667H0V0H3.92708L5.075 2.41667Z" fill="#3B1E0E"/>
</svg>
